<svg xmlns="http://www.w3.org/2000/svg" viewBox="85 675 1180 1180" role="img" aria-label="GPF"><g id="Página-1" serif:id="Página 1" transform="matrix(4.166667,0,0,4.166667,0,0)" xmlns:serif="http://www.serif.com/"><rect x="0" y="0" width="792" height="612" style="fill:none;"/><g id="Capa-1" serif:id="Capa 1"><g transform="matrix(1,0,0,1,-3.243986,2.33497)"><g transform="matrix(297.575159,-249.695208,-249.695208,-297.575159,-13.391054,445.138765)"><path d="M0.861,0.15C0.789,0.265 0.649,0.337 0.499,0.303C0.455,0.293 0.416,0.275 0.381,0.251C0.268,0.171 0.207,0.024 0.249,-0.116C0.289,-0.25 0.421,-0.35 0.561,-0.355C0.7,-0.359 0.837,-0.267 0.887,-0.137C0.892,-0.125 0.895,-0.114 0.898,-0.103C0.927,-0.098 0.955,-0.083 0.976,-0.059C1.021,-0.005 1.014,0.076 0.96,0.121C0.931,0.145 0.895,0.155 0.861,0.15Z" style="fill:url(#_Linear1);fill-rule:nonzero;"/></g><g transform="matrix(1.876606,0,0,1.876606,112.701762,284.163598)"><path d="M0,-20.223L-12.603,-20.223C-14.704,-20.223 -16.413,-18.515 -16.413,-16.413L-16.413,-3.81C-16.413,-1.709 -14.704,0 -12.603,0C-10.504,0 -8.795,-1.709 -8.795,-3.81L-8.795,-12.605L0,-12.605C2.101,-12.605 3.81,-14.314 3.81,-16.413C3.81,-18.515 2.101,-20.223 0,-20.223" style="fill:white;fill-rule:nonzero;"/></g><g transform="matrix(1.876606,0,0,1.876606,235.103605,371.510996)"><path d="M0,-20.221C-2.099,-20.221 -3.808,-18.512 -3.808,-16.413L-3.808,-7.618L-12.603,-7.618C-14.704,-7.618 -16.413,-5.909 -16.413,-3.808C-16.413,-1.709 -14.704,0 -12.603,0L0,0C2.101,0 3.81,-1.709 3.81,-3.808L3.81,-16.413C3.81,-18.512 2.101,-20.221 0,-20.221" style="fill:white;fill-rule:nonzero;"/></g><g transform="matrix(1.876606,0,0,1.876606,112.701762,347.860125)"><path d="M0,4.985L-8.795,4.985L-8.795,-3.81C-8.795,-5.909 -10.504,-7.618 -12.603,-7.618C-14.704,-7.618 -16.413,-5.909 -16.413,-3.81L-16.413,8.795C-16.413,10.894 -14.704,12.603 -12.603,12.603L0,12.603C2.101,12.603 3.81,10.894 3.81,8.795C3.81,6.694 2.101,4.985 0,4.985" style="fill:white;fill-rule:nonzero;"/></g><g transform="matrix(1.876606,0,0,1.876606,189.239343,277.069838)"><path d="M0,18.582L-28.334,18.582C-28.818,17.023 -29.084,15.359 -29.084,13.629C-29.084,9.524 -27.609,5.785 -25.191,2.975C-21.801,1.348 -17.87,0.249 -13.417,0.249C-13.417,0.249 -9.149,-0.087 -3.269,2.834C-0.777,5.661 0.751,9.455 0.751,13.629C0.751,15.359 0.485,17.023 0,18.582M21.805,18.275L17.19,18.275C18.073,17.119 18.623,16.284 18.816,15.979L18.906,15.979C18.89,15.957 18.874,15.936 18.858,15.915C18.887,15.868 18.906,15.838 18.906,15.838L18.802,15.838C3.594,-5.215 -13.214,-3.953 -13.214,-3.953C-34.142,-3.953 -46.07,14.014 -47.15,15.711L-47.239,15.711C-47.224,15.733 -47.208,15.754 -47.192,15.776C-47.221,15.823 -47.239,15.853 -47.239,15.853L-47.136,15.853C-46.526,16.697 -45.914,17.501 -45.3,18.275L-50.753,18.275C-52.067,18.275 -53.133,19.341 -53.133,20.655C-53.133,21.91 -52.16,23.687 -50.93,23.78L18.973,23.78L18.973,23.797L21.805,23.797C23.119,23.797 24.185,21.97 24.185,20.655C24.185,19.341 23.119,18.275 21.805,18.275" style="fill:white;fill-rule:nonzero;"/></g><g transform="matrix(1.876606,0,0,1.876606,181.579974,346.958603)"><path d="M0,-11.204C-2.655,-8.618 -6.195,-7.798 -10.085,-7.798C-13.976,-7.798 -17.516,-8.618 -20.171,-11.204L-34.69,-11.204C-22.277,0 -11.038,-1.599 -11.038,-1.599C0.294,-1.599 8.983,-6.104 14.744,-11.204L0,-11.204Z" style="fill:white;fill-rule:nonzero;"/></g><g transform="matrix(0,-1.876606,-1.876606,0,152.134518,284.728644)"><path d="M-5.138,-5.138C-7.976,-5.138 -10.277,-2.837 -10.277,0.001C-10.277,2.839 -7.976,5.138 -5.138,5.138C-2.3,5.138 0.001,2.839 0.001,0.001C0.001,-2.837 -2.3,-5.138 -5.138,-5.138" style="fill:white;fill-rule:nonzero;"/></g><g transform="matrix(-1.676251,0.843704,0.843704,1.676251,219.932724,257.146963)"><path d="M4.842,-7.16C5.535,-6.804 6.156,-6.294 6.533,-5.546C7.477,-3.671 6.718,-1.376 4.842,-0.431L0.999,1.503C2.821,-1.125 4.116,-4.069 4.842,-7.16" style="fill:white;fill-rule:nonzero;"/></g><g transform="matrix(1.876606,0,0,1.876606,242.136187,282.00156)"><path d="M0,-8.4C-2.632,-8.4 -5.17,-8.805 -7.556,-9.552L-7.556,-2.658C-7.556,-0.557 -5.847,1.152 -3.748,1.152C-1.646,1.152 0.062,-0.557 0.062,-2.658L0.062,-8.403C0.041,-8.403 0.021,-8.4 0,-8.4" style="fill:white;fill-rule:nonzero;"/></g><g transform="matrix(0,-1.876606,-1.876606,0,241.957722,179.114547)"><path d="M-21.305,-21.306C-9.538,-21.306 0,-11.767 0,-0.001C0,11.766 -9.538,21.305 -21.305,21.305C-33.072,21.305 -42.611,11.766 -42.611,-0.001C-42.611,-11.767 -33.072,-21.306 -21.305,-21.306" style="fill:white;fill-rule:nonzero;"/></g></g></g></g><defs><linearGradient id="_Linear1" x1="0" y1="0" x2="1" y2="0" gradientUnits="userSpaceOnUse" gradientTransform="matrix(1,0,0,-1,0,-0.021599)"><stop offset="0" style="stop-color:rgb(0,160,77);stop-opacity:1"/><stop offset="0" style="stop-color:rgb(0,160,77);stop-opacity:1"/><stop offset="1" style="stop-color:rgb(0,131,199);stop-opacity:1"/></linearGradient></defs></svg>