<svg xmlns="http://www.w3.org/2000/svg" viewBox="0 0 256 256" role="img" aria-label="GPF">
  <defs>
    <linearGradient id="gpfGradient" x1="0" y1="1" x2="1" y2="0">
      <stop offset="0" stop-color="#00a36f"/>
      <stop offset="1" stop-color="#0086bd"/>
    </linearGradient>
  </defs>
  <rect width="256" height="256" rx="58" fill="url(#gpfGradient)"/>
  <path d="M74 91V67c0-9 7-16 16-16h24" fill="none" stroke="#fff" stroke-width="17" stroke-linecap="round" stroke-linejoin="round"/>
  <path d="M182 91V67c0-9-7-16-16-16h-24" fill="none" stroke="#fff" stroke-width="17" stroke-linecap="round" stroke-linejoin="round"/>
  <path d="M74 165v24c0 9 7 16 16 16h24" fill="none" stroke="#fff" stroke-width="17" stroke-linecap="round" stroke-linejoin="round"/>
  <path d="M182 165v24c0 9-7 16-16 16h-24" fill="none" stroke="#fff" stroke-width="17" stroke-linecap="round" stroke-linejoin="round"/>
  <path d="M54 128c31-48 117-48 148 0-31 48-117 48-148 0z" fill="#fff"/>
  <circle cx="128" cy="128" r="24" fill="url(#gpfGradient)"/>
  <path d="M78 148h100c-25 27-75 27-100 0z" fill="url(#gpfGradient)"/>
</svg>
