<svg xmlns="http://www.w3.org/2000/svg" viewBox="120 715 3056 1122" preserveAspectRatio="xMidYMid meet" role="img" aria-label="Grupo Principia Futuro" style="fill-rule:evenodd;clip-rule:evenodd;stroke-linejoin:round;stroke-miterlimit:2;"><g id="Página-1" transform="matrix(4.166667,0,0,4.166667,0,0)"><rect x="0" y="0" width="792" height="612" style="fill:none;"/><g id="Capa-1"><g transform="matrix(1,0,0,1,-3.243986,2.33497)"><g transform="matrix(1.876606,0,0,1.876606,362.808925,297.417131)"><path d="M0,-8.41C0,-11.099 -1.585,-12.599 -4.32,-12.599L-8.725,-12.599L-8.725,-4.139L-4.32,-4.139C-1.585,-4.139 0,-5.635 0,-8.41M8.68,-8.675C8.68,-1.32 4.095,2.91 -3.879,2.91L-8.725,2.91L-8.725,11.239L-17.889,11.239L-17.889,-19.649L-3.879,-19.649C4.095,-19.649 8.68,-15.68 8.68,-8.675" style="fill:rgb(70,28,110);fill-rule:nonzero;"/></g><g transform="matrix(1.876606,0,0,1.876606,402.909566,289.40496)"><path d="M0,0.13L5.245,0.13C7.975,0.13 9.56,-1.366 9.56,-4.141C9.56,-6.83 7.975,-8.329 5.245,-8.329L0,-8.329L0,0.13ZM8.945,15.509L4.845,7.18L0,7.18L0,15.509L-9.165,15.509L-9.165,-15.379L5.245,-15.379C13.525,-15.379 18.284,-11.41 18.284,-4.406C18.284,0.175 16.435,3.525 13.085,5.419L19.344,15.509L8.945,15.509Z" style="fill:rgb(70,28,110);fill-rule:nonzero;"/></g><g transform="matrix(-1.876606,0,0,1.876606,1257.325666,-302.812439)"><rect x="423.359" y="300.2" width="9.165" height="30.888" style="fill:rgb(70,28,110);"/></g><g transform="matrix(1.876606,0,0,1.876606,487.325704,318.508686)"><path d="M0,-30.888L13.084,-13.614L13.084,-30.888L21.455,-30.888L21.455,0L13.655,0L0.57,-17.184L0.57,0L-7.844,0L-7.844,-30.888L0,-30.888Z" style="fill:rgb(70,28,110);fill-rule:nonzero;"/></g><g transform="matrix(1.876606,0,0,1.876606,565.447705,304.950955)"><path d="M0,-16.304C-4.185,-16.304 -7.359,-12.909 -7.359,-8.374C-7.359,-3.835 -4.185,-0.4 0,-0.4C2.38,-0.4 5.245,-1.809 7.359,-3.965L12.645,1.675C9.299,5.285 4.23,7.62 -0.44,7.62C-9.825,7.62 -16.744,0.835 -16.744,-8.284C-16.744,-17.274 -9.694,-23.924 -0.13,-23.924C4.54,-23.924 9.519,-21.809 12.645,-18.464L7.359,-12.204C5.42,-14.674 2.555,-16.304 0,-16.304" style="fill:rgb(70,28,110);fill-rule:nonzero;"/></g><g transform="matrix(-1.876606,0,0,1.876606,1554.812827,-302.812439)"><rect x="502.621" y="300.2" width="9.165" height="30.888" style="fill:rgb(70,28,110);"/></g><g transform="matrix(1.876606,0,0,1.876606,654.910788,297.417131)"><path d="M0,-8.41C0,-11.099 -1.585,-12.599 -4.319,-12.599L-8.725,-12.599L-8.725,-4.139L-4.319,-4.139C-1.585,-4.139 0,-5.635 0,-8.41M8.68,-8.675C8.68,-1.32 4.095,2.91 -3.879,2.91L-8.725,2.91L-8.725,11.239L-17.889,11.239L-17.889,-19.649L-3.879,-19.649C4.095,-19.649 8.68,-15.68 8.68,-8.675" style="fill:rgb(70,28,110);fill-rule:nonzero;"/></g><g transform="matrix(-1.876606,0,0,1.876606,1721.6544,-302.812439)"><rect x="547.074" y="300.2" width="9.165" height="30.888" style="fill:rgb(70,28,110);"/></g><g transform="matrix(1.876606,0,0,1.876606,739.242667,282.376318)"><path d="M0,7.62L-3.704,-2.469L-7.49,7.62L0,7.62ZM2.42,14.319L-10.045,14.319L-11.899,19.254L-21.324,19.254L-8.154,-11.634L1.275,-11.634L14.01,19.254L4.229,19.254L2.42,14.319Z" style="fill:rgb(70,28,110);fill-rule:nonzero;"/></g><g transform="matrix(1.876606,0,0,1.876606,374.217942,390.550107)"><path d="M0,-30.888L0,-23.839L-14.804,-23.839L-14.804,-17.669L-1.06,-17.669L-1.06,-10.619L-14.804,-10.619L-14.804,0L-23.969,0L-23.969,-30.888L0,-30.888Z" style="fill:rgb(70,28,110);fill-rule:nonzero;"/></g><g transform="matrix(1.876606,0,0,1.876606,407.039413,346.969863)"><path d="M0,15.953C3.04,15.953 5.195,13.793 5.195,10.179L5.195,-7.665L14.36,-7.665L14.36,10.179C14.36,18.378 8.765,23.618 -0.045,23.618C-8.904,23.618 -14.674,18.378 -14.674,10.179L-14.674,-7.665L-5.509,-7.665L-5.509,10.179C-5.509,13.748 -3.085,15.953 0,15.953" style="fill:rgb(70,28,110);fill-rule:nonzero;"/></g><g transform="matrix(1.876606,0,0,1.876606,489.38284,390.550107)"><path d="M0,-30.888L0,-23.574L-8.985,-23.574L-8.985,0L-18.195,0L-18.195,-23.574L-27.139,-23.574L-27.139,-30.888L0,-30.888Z" style="fill:rgb(70,28,110);fill-rule:nonzero;"/></g><g transform="matrix(1.876606,0,0,1.876606,521.385924,346.969863)"><path d="M0,15.953C3.04,15.953 5.195,13.793 5.195,10.179L5.195,-7.665L14.36,-7.665L14.36,10.179C14.36,18.378 8.765,23.618 -0.045,23.618C-8.904,23.618 -14.674,18.378 -14.674,10.179L-14.674,-7.665L-5.509,-7.665L-5.509,10.179C-5.509,13.748 -3.085,15.953 0,15.953" style="fill:rgb(70,28,110);fill-rule:nonzero;"/></g><g transform="matrix(1.876606,0,0,1.876606,574.379788,361.444504)"><path d="M0,0.131L5.244,0.131C7.975,0.131 9.56,-1.365 9.56,-4.14C9.56,-6.829 7.975,-8.329 5.244,-8.329L0,-8.329L0,0.131ZM8.944,15.509L4.845,7.18L0,7.18L0,15.509L-9.165,15.509L-9.165,-15.378L5.244,-15.378C13.524,-15.378 18.284,-11.41 18.284,-4.405C18.284,0.175 16.434,3.525 13.084,5.42L19.344,15.509L8.944,15.509Z" style="fill:rgb(70,28,110);fill-rule:nonzero;"/></g><g transform="matrix(1.876606,0,0,1.876606,631.426748,361.774599)"><path d="M0,-0.086C0,4.584 3.529,8.064 7.58,8.064C11.634,8.064 14.894,4.584 14.894,-0.086C14.894,-4.76 11.634,-8.15 7.58,-8.15C3.484,-8.15 0,-4.76 0,-0.086M24.278,-0.131C24.278,8.944 17.143,15.729 7.449,15.729C-2.245,15.729 -9.385,8.989 -9.385,-0.131C-9.385,-9.21 -2.245,-15.815 7.449,-15.815C17.143,-15.815 24.278,-9.165 24.278,-0.131" style="fill:rgb(70,28,110);fill-rule:nonzero;"/></g><g transform="matrix(297.575159,-249.695208,-249.695208,-297.575159,-13.391054,445.138765)"><path d="M0.861,0.15C0.789,0.265 0.649,0.337 0.499,0.303C0.455,0.293 0.416,0.275 0.381,0.251C0.268,0.171 0.207,0.024 0.249,-0.116C0.289,-0.25 0.421,-0.35 0.561,-0.355C0.7,-0.359 0.837,-0.267 0.887,-0.137C0.892,-0.125 0.895,-0.114 0.898,-0.103C0.927,-0.098 0.955,-0.083 0.976,-0.059C1.021,-0.005 1.014,0.076 0.96,0.121C0.931,0.145 0.895,0.155 0.861,0.15Z" style="fill:url(#_Linear1);fill-rule:nonzero;"/></g><g transform="matrix(1.876606,0,0,1.876606,112.701762,284.163598)"><path d="M0,-20.223L-12.603,-20.223C-14.704,-20.223 -16.413,-18.515 -16.413,-16.413L-16.413,-3.81C-16.413,-1.709 -14.704,0 -12.603,0C-10.504,0 -8.795,-1.709 -8.795,-3.81L-8.795,-12.605L0,-12.605C2.101,-12.605 3.81,-14.314 3.81,-16.413C3.81,-18.515 2.101,-20.223 0,-20.223" style="fill:white;fill-rule:nonzero;"/></g><g transform="matrix(1.876606,0,0,1.876606,235.103605,371.510996)"><path d="M0,-20.221C-2.099,-20.221 -3.808,-18.512 -3.808,-16.413L-3.808,-7.618L-12.603,-7.618C-14.704,-7.618 -16.413,-5.909 -16.413,-3.808C-16.413,-1.709 -14.704,0 -12.603,0L0,0C2.101,0 3.81,-1.709 3.81,-3.808L3.81,-16.413C3.81,-18.512 2.101,-20.221 0,-20.221" style="fill:white;fill-rule:nonzero;"/></g><g transform="matrix(1.876606,0,0,1.876606,112.701762,347.860125)"><path d="M0,4.985L-8.795,4.985L-8.795,-3.81C-8.795,-5.909 -10.504,-7.618 -12.603,-7.618C-14.704,-7.618 -16.413,-5.909 -16.413,-3.81L-16.413,8.795C-16.413,10.894 -14.704,12.603 -12.603,12.603L0,12.603C2.101,12.603 3.81,10.894 3.81,8.795C3.81,6.694 2.101,4.985 0,4.985" style="fill:white;fill-rule:nonzero;"/></g><g transform="matrix(1.876606,0,0,1.876606,189.239343,277.069838)"><path d="M0,18.582L-28.334,18.582C-28.818,17.023 -29.084,15.359 -29.084,13.629C-29.084,9.524 -27.609,5.785 -25.191,2.975C-21.801,1.348 -17.87,0.249 -13.417,0.249C-13.417,0.249 -9.149,-0.087 -3.269,2.834C-0.777,5.661 0.751,9.455 0.751,13.629C0.751,15.359 0.485,17.023 0,18.582M21.805,18.275L17.19,18.275C18.073,17.119 18.623,16.284 18.816,15.979L18.906,15.979C18.89,15.957 18.874,15.936 18.858,15.915C18.887,15.868 18.906,15.838 18.906,15.838L18.802,15.838C3.594,-5.215 -13.214,-3.953 -13.214,-3.953C-34.142,-3.953 -46.07,14.014 -47.15,15.711L-47.239,15.711C-47.224,15.733 -47.208,15.754 -47.192,15.776C-47.221,15.823 -47.239,15.853 -47.239,15.853L-47.136,15.853C-46.526,16.697 -45.914,17.501 -45.3,18.275L-50.753,18.275C-52.067,18.275 -53.133,19.341 -53.133,20.655C-53.133,21.91 -52.16,23.687 -50.93,23.78L18.973,23.78L18.973,23.797L21.805,23.797C23.119,23.797 24.185,21.97 24.185,20.655C24.185,19.341 23.119,18.275 21.805,18.275" style="fill:white;fill-rule:nonzero;"/></g><g transform="matrix(1.876606,0,0,1.876606,181.579974,346.958603)"><path d="M0,-11.204C-2.655,-8.618 -6.195,-7.798 -10.085,-7.798C-13.976,-7.798 -17.516,-8.618 -20.171,-11.204L-34.69,-11.204C-22.277,0 -11.038,-1.599 -11.038,-1.599C0.294,-1.599 8.983,-6.104 14.744,-11.204L0,-11.204Z" style="fill:white;fill-rule:nonzero;"/></g><g transform="matrix(0,-1.876606,-1.876606,0,152.134518,284.728644)"><path d="M-5.138,-5.138C-7.976,-5.138 -10.277,-2.837 -10.277,0.001C-10.277,2.839 -7.976,5.138 -5.138,5.138C-2.3,5.138 0.001,2.839 0.001,0.001C0.001,-2.837 -2.3,-5.138 -5.138,-5.138" style="fill:white;fill-rule:nonzero;"/></g><g transform="matrix(-1.676251,0.843704,0.843704,1.676251,219.932724,257.146963)"><path d="M4.842,-7.16C5.535,-6.804 6.156,-6.294 6.533,-5.546C7.477,-3.671 6.718,-1.376 4.842,-0.431L0.999,1.503C2.821,-1.125 4.116,-4.069 4.842,-7.16" style="fill:white;fill-rule:nonzero;"/></g><g transform="matrix(1.876606,0,0,1.876606,242.136187,282.00156)"><path d="M0,-8.4C-2.632,-8.4 -5.17,-8.805 -7.556,-9.552L-7.556,-2.658C-7.556,-0.557 -5.847,1.152 -3.748,1.152C-1.646,1.152 0.062,-0.557 0.062,-2.658L0.062,-8.403C0.041,-8.403 0.021,-8.4 0,-8.4" style="fill:white;fill-rule:nonzero;"/></g><g transform="matrix(0,-1.876606,-1.876606,0,241.957722,179.114547)"><path d="M-21.305,-21.306C-9.538,-21.306 0,-11.767 0,-0.001C0,11.766 -9.538,21.305 -21.305,21.305C-33.072,21.305 -42.611,11.766 -42.611,-0.001C-42.611,-11.767 -33.072,-21.306 -21.305,-21.306" style="fill:white;fill-rule:nonzero;"/></g><g transform="matrix(1.876606,0,0,1.876606,267.824115,211.82042)"><path d="M0,8.013C-1.019,8.614 -2.145,9.21 -3.38,9.791C-3.571,9.509 -3.813,9.268 -4.076,9.054C-2.604,5.63 -1.847,2.26 -1.508,-0.781C-0.745,1.684 -0.162,4.676 0,8.013M-0.455,16.024C-0.487,16.032 -0.518,16.044 -0.549,16.054C-1.321,15.13 -2.192,14.204 -3.192,13.306C-2.943,12.83 -2.79,12.296 -2.79,11.721C-2.79,11.468 -2.821,11.222 -2.873,10.983C-1.826,10.494 -0.851,9.995 0.045,9.491C0.065,11.564 -0.084,13.754 -0.455,16.024M-6.241,8.27C-6.608,8.27 -6.955,8.343 -7.286,8.45C-8.401,5.718 -9.77,3.283 -11.272,1.128C-11.143,0.903 -11.063,0.645 -11.063,0.367C-11.063,0.309 -11.073,0.254 -11.08,0.198C-9.338,-0.861 -7.466,-1.784 -5.476,-2.582C-4.944,-1.614 -3.984,-0.93 -2.844,-0.781C-3.17,2.089 -3.88,5.25 -5.228,8.439C-5.55,8.34 -5.886,8.27 -6.241,8.27M-8.76,9.378C-11.58,7.756 -14.414,6.555 -17.16,5.677C-17.192,5.475 -17.258,5.286 -17.349,5.112C-16.11,3.874 -14.771,2.738 -13.334,1.701C-13.114,1.824 -12.865,1.9 -12.595,1.9C-12.474,1.9 -12.358,1.882 -12.245,1.855C-10.663,4.122 -9.376,6.515 -8.367,9.022C-8.506,9.132 -8.64,9.248 -8.76,9.378M-15.329,-3.805C-15.165,-4.101 -15.05,-4.425 -14.997,-4.772C-11.644,-4.944 -8.675,-4.758 -5.922,-4.259C-5.922,-4.094 -5.896,-3.936 -5.874,-3.777C-8,-2.919 -9.939,-1.942 -11.693,-0.867C-11.947,-1.053 -12.257,-1.166 -12.595,-1.166C-12.72,-1.166 -12.839,-1.147 -12.956,-1.119C-13.732,-2.08 -14.527,-2.973 -15.329,-3.805M-14.376,-9.832C-11.494,-8.973 -8.452,-7.697 -5.56,-5.809C-5.603,-5.719 -5.645,-5.631 -5.681,-5.538C-8.533,-6.054 -11.613,-6.245 -15.097,-6.063C-15.258,-6.582 -15.556,-7.035 -15.955,-7.383C-15.426,-8.286 -14.895,-9.101 -14.376,-9.832M4.467,4.416C4.471,4.268 4.49,4.123 4.49,3.973C4.49,3.303 4.448,2.643 4.378,1.992C3.313,0.548 2.082,-0.928 0.629,-2.385C1.688,-1.97 2.736,-1.506 3.786,-0.999C3.623,-1.575 3.433,-2.139 3.216,-2.691C2.507,-3.013 1.798,-3.321 1.083,-3.602C1.125,-3.82 1.151,-4.043 1.151,-4.273C1.151,-4.394 1.128,-4.508 1.116,-4.627C1.472,-4.71 1.848,-4.773 2.211,-4.849C1.987,-5.254 1.745,-5.648 1.492,-6.033C1.248,-5.979 0.989,-5.936 0.749,-5.88C0.314,-6.724 -0.442,-7.363 -1.366,-7.643C-1.414,-8.342 -1.479,-8.977 -1.549,-9.56C-2.026,-9.989 -2.523,-10.395 -3.043,-10.773C-2.917,-9.974 -2.789,-8.969 -2.704,-7.779C-2.896,-7.761 -3.083,-7.734 -3.265,-7.687C-4.44,-9.6 -5.788,-11.459 -6.924,-12.937C-7.642,-13.227 -8.385,-13.462 -9.144,-13.66C-7.925,-12.148 -6.023,-9.677 -4.447,-7.138C-4.567,-7.051 -4.68,-6.957 -4.788,-6.857C-7.667,-8.756 -10.674,-10.065 -13.539,-10.962C-12.455,-12.349 -11.482,-13.341 -10.761,-14.005C-11.308,-14.095 -11.861,-14.163 -12.424,-14.204C-13.139,-13.481 -13.976,-12.549 -14.875,-11.355C-17.232,-12.001 -19.444,-12.373 -21.373,-12.588C-22.091,-12.258 -22.782,-11.882 -23.446,-11.464C-21.341,-11.316 -18.644,-10.969 -15.703,-10.204C-16.164,-9.533 -16.632,-8.798 -17.098,-7.997C-17.341,-8.063 -17.592,-8.109 -17.856,-8.109C-18.462,-8.109 -19.025,-7.922 -19.49,-7.604C-21.266,-9.025 -22.905,-10.114 -24.257,-10.929C-24.634,-10.662 -25.009,-10.393 -25.364,-10.1C-23.994,-9.309 -22.25,-8.192 -20.342,-6.685C-20.566,-6.308 -20.704,-5.879 -20.737,-5.418C-24.656,-4.635 -28.198,-3.154 -31.13,-1.582C-31.315,-1.005 -31.472,-0.416 -31.599,0.184C-28.573,-1.548 -24.77,-3.27 -20.547,-4.131C-20.12,-3.061 -19.078,-2.304 -17.856,-2.304C-17.21,-2.304 -16.62,-2.522 -16.138,-2.879C-15.79,-2.517 -15.444,-2.148 -15.101,-1.761C-14.694,-1.305 -14.312,-0.838 -13.932,-0.37C-14.053,-0.151 -14.128,0.098 -14.128,0.367C-14.128,0.494 -14.108,0.616 -14.079,0.735C-15.612,1.851 -16.993,3.038 -18.229,4.276C-18.461,4.171 -18.718,4.109 -18.99,4.109C-19.559,4.109 -20.062,4.37 -20.403,4.772C-24.771,3.724 -28.781,3.433 -31.972,3.449C-31.977,3.624 -31.999,3.796 -31.999,3.973C-31.999,4.229 -31.97,4.478 -31.96,4.732C-28.896,4.715 -25.046,4.989 -20.848,5.984C-20.845,6.317 -20.75,6.624 -20.594,6.893C-23.323,10.251 -25.17,13.802 -26.425,17.082C-26.108,17.389 -25.785,17.689 -25.446,17.972C-24.983,16.703 -24.431,15.391 -23.767,14.063C-22.604,11.741 -21.235,9.622 -19.675,7.694C-19.462,7.778 -19.232,7.827 -18.99,7.827C-18.325,7.827 -17.746,7.475 -17.417,6.95C-14.811,7.795 -12.124,8.933 -9.448,10.468C-9.601,10.857 -9.692,11.278 -9.692,11.721C-9.692,12.77 -9.215,13.697 -8.478,14.33C-10.67,17.576 -13.056,20.122 -15.394,22.134C-14.853,22.182 -14.308,22.217 -13.754,22.217C-13.664,22.217 -13.577,22.205 -13.487,22.203C-11.404,20.262 -9.309,17.891 -7.354,14.973C-7.09,15.063 -6.813,15.12 -6.525,15.144C-6.173,16.844 -5.938,18.59 -5.815,20.38C-5.401,20.179 -4.995,19.966 -4.598,19.736C-4.738,18.094 -4.97,16.522 -5.282,15.021C-4.801,14.881 -4.367,14.643 -3.997,14.325C-3.08,15.159 -2.277,16.021 -1.562,16.882C-1.684,17.115 -1.76,17.376 -1.76,17.657C-1.76,17.67 -1.756,17.68 -1.755,17.693C-0.671,16.744 0.3,15.672 1.134,14.493C1.371,12.457 1.434,10.521 1.369,8.717C2.459,8.047 3.411,7.383 4.258,6.741C4.349,6.144 4.41,5.539 4.441,4.925C3.555,5.654 2.512,6.43 1.284,7.221C1.02,3.708 0.316,0.768 -0.365,-1.375C-0.332,-1.398 -0.304,-1.428 -0.271,-1.452C1.671,0.507 3.221,2.513 4.467,4.416" style="fill:rgb(70,28,110);fill-rule:nonzero;"/></g><g transform="matrix(0,-1.876606,-1.876606,0,223.955061,212.200808)"><path d="M-1.055,-1.054C-0.472,-1.054 0,-0.582 0,0C0,0.583 -0.472,1.055 -1.055,1.055C-1.637,1.055 -2.109,0.583 -2.109,0C-2.109,-0.582 -1.637,-1.054 -1.055,-1.054" style="fill:rgb(70,28,110);fill-rule:nonzero;"/></g><g transform="matrix(0,-1.876606,-1.876606,0,238.855316,237.796969)"><path d="M-1.055,-1.054C-0.472,-1.054 0,-0.582 0,0C0,0.583 -0.472,1.055 -1.055,1.055C-1.637,1.055 -2.109,0.583 -2.109,0C-2.109,-0.582 -1.637,-1.054 -1.055,-1.054" style="fill:rgb(70,28,110);fill-rule:nonzero;"/></g><g transform="matrix(1.876606,0,0,1.876606,356.018237,232.310147)"><path d="M0,0.386L1.828,0.386L1.828,6.925C0.052,8.34 -2.445,9.267 -4.864,9.267C-10.09,9.267 -14.261,5.251 -14.261,0.18C-14.261,-4.891 -10.064,-8.881 -4.762,-8.881C-2.265,-8.881 0.155,-7.928 1.88,-6.41L0.695,-4.917C-0.771,-6.23 -2.754,-7.002 -4.762,-7.002C-8.881,-7.002 -12.176,-3.81 -12.176,0.18C-12.176,4.196 -8.854,7.388 -4.736,7.388C-3.114,7.388 -1.39,6.822 0,5.869L0,0.386Z" style="fill:rgb(70,28,110);fill-rule:nonzero;"/></g><g transform="matrix(1.876606,0,0,1.876606,377.811643,230.041517)"><path d="M0,2.779C3.269,2.779 5.122,1.312 5.122,-1.52C5.122,-4.274 3.269,-5.716 0,-5.716L-4.788,-5.716L-4.788,2.779L0,2.779ZM4.942,10.399L1.158,4.633C0.798,4.658 0.411,4.684 0,4.684L-4.788,4.684L-4.788,10.399L-6.848,10.399L-6.848,-7.62L0,-7.62C4.505,-7.62 7.104,-5.407 7.104,-1.571C7.104,1.389 5.637,3.423 3.037,4.246L7.284,10.399L4.942,10.399Z" style="fill:rgb(70,28,110);fill-rule:nonzero;"/></g><g transform="matrix(1.876606,0,0,1.876606,409.506963,219.267732)"><path d="M0,14.338C3.424,14.338 5.483,12.278 5.483,8.726L5.483,-1.879L7.543,-1.879L7.543,8.726C7.543,13.437 4.711,16.217 0,16.217C-4.736,16.217 -7.594,13.437 -7.594,8.726L-7.594,-1.879L-5.534,-1.879L-5.534,8.726C-5.534,12.278 -3.423,14.338 0,14.338" style="fill:rgb(70,28,110);fill-rule:nonzero;"/></g><g transform="matrix(1.876606,0,0,1.876606,451.442925,238.105671)"><path d="M0,-5.817C0,-8.571 -1.879,-10.013 -5.122,-10.013L-9.756,-10.013L-9.756,-1.518L-5.122,-1.518C-1.879,-1.518 0,-2.985 0,-5.817M1.982,-5.868C1.982,-1.904 -0.592,0.387 -5.045,0.387L-9.756,0.387L-9.756,6.101L-11.815,6.101L-11.815,-11.918L-5.045,-11.918C-0.592,-11.918 1.982,-9.704 1.982,-5.868" style="fill:rgb(70,28,110);fill-rule:nonzero;"/></g><g transform="matrix(1.876606,0,0,1.876606,459.902291,232.696728)"><path d="M0,-0.026C0,3.964 3.347,7.182 7.362,7.182C11.378,7.182 14.673,3.964 14.673,-0.026C14.673,-4.016 11.378,-7.182 7.362,-7.182C3.347,-7.182 0,-4.016 0,-0.026M16.784,-0.026C16.784,5.045 12.614,9.061 7.362,9.061C2.086,9.061 -2.085,5.045 -2.085,-0.026C-2.085,-5.097 2.086,-9.087 7.362,-9.087C12.614,-9.087 16.784,-5.097 16.784,-0.026" style="fill:rgb(70,28,110);fill-rule:nonzero;"/></g></g></g></g><defs><linearGradient id="_Linear1" x1="0" y1="0" x2="1" y2="0" gradientUnits="userSpaceOnUse" gradientTransform="matrix(1,0,0,-1,0,-0.021599)"><stop offset="0" style="stop-color:rgb(0,160,77);stop-opacity:1"/><stop offset="0" style="stop-color:rgb(0,160,77);stop-opacity:1"/><stop offset="1" style="stop-color:rgb(0,131,199);stop-opacity:1"/></linearGradient></defs></svg>
